<?xml version='1.0' encoding='UTF-8' standalone='no'?>
<!-- Created with Fritzing (http://www.fritzing.org/) -->
<svg xmlns:svg='http://www.w3.org/2000/svg' xmlns='http://www.w3.org/2000/svg' version='1.2' baseProfile='tiny' x='0in' y='0in' width='2.04842in' height='3.84849in' viewBox='0 0 147.486 277.091' >
<g partID='854381540'><g transform='translate(46.6859,0)' ><g transform="matrix(1, 0, 0, 1, 0, -122.4)">
<g id="breadboard">
<g>
<path d="m50.4,194.4,0,79.2" id="path3846" stroke-width="5.04" stroke-opacity="1" style="color:#000000;stroke-linecap:butt;stroke-linejoin:miter;stroke-miterlimit:4;stroke-dasharray:none;stroke-dashoffset:0;marker:none;visibility:visible;display:inline;overflow:visible;enable-background:accumulate" stroke="#e6c739" fill="none"/>
<path d="m43.2,194.4,0,79.2" id="path3848" stroke-width="5.04" stroke-opacity="1" style="color:#000000;stroke-linecap:butt;stroke-linejoin:miter;stroke-miterlimit:4;stroke-dasharray:none;stroke-dashoffset:0;marker:none;visibility:visible;display:inline;overflow:visible;enable-background:accumulate" stroke="#d2382b" fill="none"/>
<path d="m57.6,194.4,0,79.2" id="path3850" stroke-width="5.04" stroke-opacity="1" style="color:#000000;stroke-linecap:butt;stroke-linejoin:miter;stroke-miterlimit:4;stroke-dasharray:none;stroke-dashoffset:0;marker:none;visibility:visible;display:inline;overflow:visible;enable-background:accumulate" stroke="#323232" fill="none"/>
<path d="m41.76,272.16,0,-72.36" id="path3852" stroke-width="0.72" stroke-opacity="0.25" style="color:#000000;stroke-linecap:round;stroke-linejoin:miter;stroke-miterlimit:4;stroke-dasharray:none;stroke-dashoffset:0;marker:none;visibility:visible;display:inline;overflow:visible;enable-background:accumulate" stroke="#ffffff" fill="none"/>
<path d="M48.96,272.16,48.96,199.8" id="path3854" stroke-width="0.72" stroke-opacity="0.25" style="color:#000000;stroke-linecap:round;stroke-linejoin:miter;stroke-miterlimit:4;stroke-dasharray:none;stroke-dashoffset:0;marker:none;visibility:visible;display:inline;overflow:visible;enable-background:accumulate" stroke="#ffffff" fill="none"/>
<path d="M56.16,272.16,56.16,199.8" id="path3856" stroke-width="0.72" stroke-opacity="0.25" style="color:#000000;stroke-linecap:round;stroke-linejoin:miter;stroke-miterlimit:4;stroke-dasharray:none;stroke-dashoffset:0;marker:none;visibility:visible;display:inline;overflow:visible;enable-background:accumulate" stroke="#ffffff" fill="none"/>
<rect height="7.2" x="42.12" y="273.6" id="rect3858" style="opacity:0.95;display:inline" stroke="none" width="2.16" fill="#cccccc"/>
<rect height="7.2" x="49.32" y="273.6" id="rect3900" style="opacity:0.95;display:inline" stroke="none" width="2.16" fill="#cccccc"/>
<rect height="7.2" x="56.52" y="273.6" id="rect3902" style="opacity:0.95;display:inline" stroke="none" width="2.16" fill="#cccccc"/>
<rect height="2.88" x="41.76" y="279.36" id="connector1pin" style="opacity:0.51583707;display:inline" stroke="none" width="2.88" fill="none"/>
<rect height="2.88" x="48.96" y="279.36" id="connector2pin" style="opacity:0.51583707;display:inline" stroke="none" width="2.88" fill="none"/>
<rect height="2.88" x="56.16" y="279.36" id="connector3pin" style="opacity:0.51583707;display:inline" stroke="none" width="2.88" fill="none"/>
<path d="m3.6,129.6,0,64.8,93.6,0,0,-64.8,-93.6,0zM7.2,159.125c1.59058,0,2.875,1.28442,2.875,2.875,0,1.59058,-1.28442,2.875,-2.875,2.875,-1.59058,0,-2.875,-1.28442,-2.875,-2.875,0,-1.59058,1.28442,-2.875,2.875,-2.875zm86.4,0c1.59058,0,2.875,1.28442,2.875,2.875,0,1.59058,-1.28442,2.875,-2.875,2.875,-1.59058,0,-2.875,-1.28442,-2.875,-2.875,0,-1.59058,1.28442,-2.875,2.875,-2.875z" id="rect2999" style="display:inline" stroke="none" fill="#2ca02c"/>
<rect height="72" x="14.4" y="126" id="rect3006" fill-opacity="1" stroke-width="0.144" stroke-opacity="1" style="fill-rule:evenodd;stroke-linecap:round;stroke-linejoin:miter;stroke-miterlimit:4;stroke-dasharray:none;display:inline" stroke="#000000" width="72" fill="#dbe3e2"/>
<g transform="matrix(1, 0, 0, 1, -3.6, -86.4)">
<path d="m61.2944,228.069a21.6,21.6,0,0,1,12.417,11.498" id="path3826" fill-opacity="1" stroke-width="10.8" stroke-opacity="0.39130435" style="opacity:0.95;fill-rule:evenodd;stroke-linecap:butt;stroke-linejoin:miter;stroke-miterlimit:4;stroke-dasharray:none;display:inline" stroke="#ffffff" fill="#b7c8be"/>
</g>
<g transform="matrix(1, 0, 0, 1, -3.6, -86.4)">
<path d="m90,248.4a36,36,0,1,1,-72,0,36,36,0,1,1,72,0z" id="path3780" fill-opacity="1" stroke-width="0.144" stroke-opacity="0.48369565" style="opacity:0.95;fill-rule:evenodd;stroke-linecap:round;stroke-linejoin:miter;stroke-miterlimit:4;stroke-dasharray:none;display:inline" stroke="#000000" fill="url(#radialGradient3947)"/>
</g>
<g transform="matrix(1, 0, 0, 1, -3.6, -86.4)">
<path d="m40.9324,236.021a18,18,0,0,1,4.22924,-3.30174" id="path3824" stroke-width="18" stroke-opacity="0.66847827" style="opacity:0.66515838;stroke-linecap:butt;stroke-linejoin:miter;stroke-miterlimit:4;stroke-dasharray:none;display:inline" stroke="#ffffff" fill="none"/>
</g>
</g>
</g>
</g>
</g></g><g partID='854381600'><g transform='translate(0,205.091)' ><g  id="breadboard">
 <title  id="title1752">breadboard</title>
 <g  id="g1095">
  <path  id="path4" d="M131.751,-0.001L5.00399,-0.001C2.24,-0.001,0,2.265,0,5.062l0,61.874c0,2.795,2.24,5.062,5.00399,5.062l126.747,0c2.765,0,5.00699,-2.268,5.00699,-5.062L136.758,5.061C136.758,2.265,134.516,-0.001,131.751,-0.001zM6.53299,1.818c2.352,0,4.25899,1.924,4.25899,4.295c0,2.37,-1.905,4.293,-4.25899,4.293c-2.355,0,-4.26099,-1.922,-4.26099,-4.293C2.272,3.743,4.17799,1.818,6.53299,1.818zM6.53299,70.404c-2.355,0,-4.26099,-1.92,-4.26099,-4.291c0,-2.373,1.905,-4.299,4.26099,-4.299c2.352,0,4.25899,1.926,4.25899,4.299C10.792,68.484,8.88498,70.404,6.53299,70.404zM130.55,70.404c-2.354,0,-4.25999,-1.92,-4.25999,-4.291c0,-2.373,1.905,-4.299,4.25999,-4.299c2.353,0,4.25899,1.926,4.25899,4.299C134.809,68.484,132.902,70.404,130.55,70.404zM130.55,10.406c-2.354,0,-4.25999,-1.923,-4.25999,-4.293c0,-2.37,1.905,-4.294,4.25999,-4.294c2.353,0,4.25899,1.923,4.25899,4.294C134.809,8.482,132.902,10.406,130.55,10.406z" fill="#1E2C5C"/>
  <rect  height="7.428" x="16.258" y="64.572" id="rect6" width="3.71299" fill="#454545"/>
  <polygon  points="14.4,66.428,16.258,64.572,16.258,71.998,14.4,70.141" id="polygon8" fill="#454545"/>
  <polygon  points="19.97,64.572,21.829,66.428,21.829,70.141,19.97,71.998" id="polygon10" fill="#454545"/>
  <rect  height="1.668" x="17.458" y="67.449" id="connector42pin" gorn="0.1.4" width="1.312" fill="#B68B2D"/>
  <rect  height="7.428" x="23.458" y="64.572" id="rect13" width="3.71299" fill="#454545"/>
  <polygon  points="21.6,66.428,23.458,64.572,23.458,71.998,21.6,70.141" id="polygon15" fill="#454545"/>
  <polygon  points="27.17,64.572,29.029,66.428,29.029,70.141,27.17,71.998" id="polygon17" fill="#454545"/>
  <rect  height="1.668" x="24.658" y="67.449" id="connector41pin" gorn="0.1.8" width="1.312" fill="#B68B2D"/>
  <rect  height="7.428" x="30.6579" y="64.572" id="rect20" width="3.71299" fill="#454545"/>
  <polygon  points="28.8,66.428,30.6579,64.572,30.6579,71.998,28.8,70.141" id="polygon22" fill="#454545"/>
  <polygon  points="34.3699,64.572,36.2289,66.428,36.2289,70.141,34.3699,71.998" id="polygon24" fill="#454545"/>
  <rect  height="1.668" x="31.8579" y="67.449" id="connector40pin" gorn="0.1.12" width="1.312" fill="#B68B2D"/>
  <rect  height="7.428" x="37.8579" y="64.572" id="rect27" width="3.71299" fill="#454545"/>
  <polygon  points="35.9999,66.428,37.8579,64.572,37.8579,71.998,35.9999,70.141" id="polygon29" fill="#454545"/>
  <polygon  points="41.5699,64.572,43.4289,66.428,43.4289,70.141,41.5699,71.998" id="polygon31" fill="#454545"/>
  <rect  height="1.668" x="39.0589" y="67.449" id="connector39pin" gorn="0.1.16" width="1.312" fill="#B68B2D"/>
  <rect  height="7.428" x="45.0579" y="64.572" id="rect34" width="3.71299" fill="#454545"/>
  <polygon  points="43.1999,66.428,45.0579,64.572,45.0579,71.998,43.1999,70.141" id="polygon36" fill="#454545"/>
  <polygon  points="48.7699,64.572,50.6289,66.428,50.6289,70.141,48.7699,71.998" id="polygon38" fill="#454545"/>
  <rect  height="1.668" x="46.2579" y="67.449" id="connector38pin" gorn="0.1.20" width="1.312" fill="#B68B2D"/>
  <rect  height="7.428" x="52.2579" y="64.572" id="rect41" width="3.71299" fill="#454545"/>
  <polygon  points="50.3999,66.428,52.2579,64.572,52.2579,71.998,50.3999,70.141" id="polygon43" fill="#454545"/>
  <polygon  points="55.9699,64.572,57.8289,66.428,57.8289,70.141,55.9699,71.998" id="polygon45" fill="#454545"/>
  <rect  height="1.668" x="53.4579" y="67.449" id="connector37pin" gorn="0.1.24" width="1.312" fill="#B68B2D"/>
  <rect  height="7.428" x="59.4579" y="64.572" id="rect48" width="3.71299" fill="#454545"/>
  <polygon  points="57.6009,66.428,59.4579,64.572,59.4579,71.998,57.6009,70.141" id="polygon50" fill="#454545"/>
  <polygon  points="63.1699,64.572,65.0289,66.428,65.0289,70.141,63.1699,71.998" id="polygon52" fill="#454545"/>
  <rect  height="1.668" x="60.6589" y="67.449" id="connector36pin" gorn="0.1.28" width="1.312" fill="#B68B2D"/>
  <rect  height="7.428" x="66.6589" y="64.572" id="rect55" width="3.71299" fill="#454545"/>
  <polygon  points="64.8009,66.428,66.6589,64.572,66.6589,71.998,64.8009,70.141" id="polygon57" fill="#454545"/>
  <polygon  points="70.3709,64.572,72.2289,66.428,72.2289,70.141,70.3709,71.998" id="polygon59" fill="#454545"/>
  <rect  height="1.668" x="67.8589" y="67.449" id="connector35pin" gorn="0.1.32" width="1.312" fill="#B68B2D"/>
  <rect  height="7.428" x="73.8569" y="64.572" id="rect62" width="3.71299" fill="#454545"/>
  <polygon  points="71.9999,66.428,73.8569,64.572,73.8569,71.998,71.9999,70.141" id="polygon64" fill="#454545"/>
  <polygon  points="77.5679,64.572,79.4299,66.428,79.4299,70.141,77.5679,71.998" id="polygon66" fill="#454545"/>
  <rect  height="1.668" x="75.0589" y="67.449" id="connector34pin" gorn="0.1.36" width="1.312" fill="#B68B2D"/>
  <rect  height="7.428" x="81.0589" y="64.572" id="rect69" width="3.71299" fill="#454545"/>
  <polygon  points="79.1999,66.428,81.0589,64.572,81.0589,71.998,79.1999,70.141" id="polygon71" fill="#454545"/>
  <polygon  points="84.7709,64.572,86.6299,66.428,86.6299,70.141,84.7709,71.998" id="polygon73" fill="#454545"/>
  <rect  height="1.668" x="82.2589" y="67.449" id="connector33pin" gorn="0.1.40" width="1.312" fill="#B68B2D"/>
  <rect  height="7.428" x="88.2588" y="64.572" id="rect76" width="3.71399" fill="#454545"/>
  <polygon  points="86.3999,66.428,88.2588,64.572,88.2588,71.998,86.3999,70.141" id="polygon78" fill="#454545"/>
  <polygon  points="91.9708,64.572,93.8288,66.428,93.8288,70.141,91.9708,71.998" id="polygon80" fill="#454545"/>
  <rect  height="1.668" x="89.4578" y="67.449" id="connector19pin" gorn="0.1.44" width="1.312" fill="#B68B2D"/>
  <rect  height="7.428" x="95.4578" y="64.572" id="rect83" width="3.71299" fill="#454545"/>
  <polygon  points="93.6018,66.428,95.4578,64.572,95.4578,71.998,93.6018,70.141" id="polygon85" fill="#454545"/>
  <polygon  points="99.1708,64.572,101.029,66.428,101.029,70.141,99.1708,71.998" id="polygon87" fill="#454545"/>
  <rect  height="1.668" x="96.6588" y="67.449" id="connector18pin" gorn="0.1.48" width="1.312" fill="#B68B2D"/>
  <rect  height="7.428" x="102.659" y="64.572" id="rect90" width="3.71299" fill="#454545"/>
  <polygon  points="100.8,66.428,102.659,64.572,102.659,71.998,100.8,70.141" id="polygon92" fill="#454545"/>
  <polygon  points="106.37,64.572,108.229,66.428,108.229,70.141,106.37,71.998" id="polygon94" fill="#454545"/>
  <rect  height="1.668" x="103.857" y="67.449" id="connector17pin" gorn="0.1.52" width="1.312" fill="#B68B2D"/>
  <rect  height="0.003336" x="104.512" y="67.4473" id="connector17terminal" stroke-width="0" gorn="0.1.53" stroke="none" width="0.002624" fill="none"/>
  <rect  height="7.428" x="109.857" y="64.572" id="rect98" width="3.71299" fill="#454545"/>
  <polygon  points="108.001,66.428,109.857,64.572,109.857,71.998,108.001,70.141" id="polygon100" fill="#454545"/>
  <polygon  points="113.57,64.572,115.43,66.428,115.43,70.141,113.57,71.998" id="polygon102" fill="#454545"/>
  <rect  height="1.668" x="111.061" y="67.449" id="connector16pin" gorn="0.1.57" width="1.312" fill="#B68B2D"/>
  <rect  height="7.428" x="117.061" y="64.572" id="rect105" width="3.71299" fill="#454545"/>
  <polygon  points="115.2,66.428,117.061,64.572,117.061,71.998,115.2,70.141" id="polygon107" fill="#454545"/>
  <polygon  points="120.771,64.572,122.63,66.428,122.63,70.141,120.771,71.998" id="polygon109" fill="#454545"/>
  <rect  height="1.668" x="118.259" y="67.449" id="connector15pin" gorn="0.1.61" width="1.312" fill="#B68B2D"/>
  <rect  height="7.427" x="16.028" y="-0.001" id="rect112" width="3.71299" fill="#454545"/>
  <polygon  points="14.17,1.854,16.028,-0.001,16.028,7.425,14.17,5.566" id="polygon114" fill="#454545"/>
  <polygon  points="19.74,-0.001,21.599,1.854,21.599,5.566,19.74,7.425" id="polygon116" fill="#454545"/>
  <rect  height="1.668" x="17.228" y="2.875" id="connector0pin" gorn="0.1.65" width="1.312" fill="#B68B2D"/>
  <rect  height="7.427" x="23.228" y="-0.001" id="rect119" width="3.71299" fill="#454545"/>
  <polygon  points="21.37,1.854,23.228,-0.001,23.228,7.425,21.37,5.566" id="polygon121" fill="#454545"/>
  <polygon  points="26.94,-0.001,28.799,1.854,28.799,5.566,26.94,7.425" id="polygon123" fill="#454545"/>
  <rect  height="1.668" x="24.428" y="2.875" id="connector1pin" gorn="0.1.69" width="1.312" fill="#B68B2D"/>
  <rect  height="7.427" x="30.4279" y="-0.001" id="rect126" width="3.71299" fill="#454545"/>
  <polygon  points="28.57,1.854,30.4279,-0.001,30.4279,7.425,28.57,5.566" id="polygon128" fill="#454545"/>
  <polygon  points="34.1399,-0.001,35.9989,1.854,35.9989,5.566,34.1399,7.425" id="polygon130" fill="#454545"/>
  <rect  height="1.668" x="31.6279" y="2.875" id="connector2pin" gorn="0.1.73" width="1.312" fill="#B68B2D"/>
  <rect  height="7.427" x="37.6279" y="-0.001" id="rect133" width="3.71299" fill="#454545"/>
  <polygon  points="35.7709,1.854,37.6279,-0.001,37.6279,7.425,35.7709,5.566" id="polygon135" fill="#454545"/>
  <polygon  points="41.3399,-0.001,43.1989,1.854,43.1989,5.566,41.3399,7.425" id="polygon137" fill="#454545"/>
  <rect  height="1.668" x="38.8289" y="2.875" id="connector3pin" gorn="0.1.77" width="1.312" fill="#B68B2D"/>
  <rect  height="7.427" x="44.8279" y="-0.001" id="rect140" width="3.71299" fill="#454545"/>
  <polygon  points="42.9699,1.854,44.8279,-0.001,44.8279,7.425,42.9699,5.566" id="polygon142" fill="#454545"/>
  <polygon  points="48.5399,-0.001,50.3989,1.854,50.3989,5.566,48.5399,7.425" id="polygon144" fill="#454545"/>
  <rect  height="1.668" x="46.0279" y="2.875" id="connector4pin" gorn="0.1.81" width="1.312" fill="#B68B2D"/>
  <rect  height="7.427" x="52.0279" y="-0.001" id="rect147" width="3.71299" fill="#454545"/>
  <polygon  points="50.1699,1.854,52.0279,-0.001,52.0279,7.425,50.1699,5.566" id="polygon149" fill="#454545"/>
  <polygon  points="55.7399,-0.001,57.5989,1.854,57.5989,5.566,55.7399,7.425" id="polygon151" fill="#454545"/>
  <rect  height="1.668" x="53.2289" y="2.875" id="connector5pin" gorn="0.1.85" width="1.312" fill="#B68B2D"/>
  <rect  height="7.427" x="59.2289" y="-0.001" id="rect154" width="3.71199" fill="#454545"/>
  <polygon  points="57.3709,1.854,59.2289,-0.001,59.2289,7.425,57.3709,5.566" id="polygon156" fill="#454545"/>
  <polygon  points="62.9389,-0.001,64.7989,1.854,64.7989,5.566,62.9389,7.425" id="polygon158" fill="#454545"/>
  <rect  height="1.668" x="60.4299" y="2.875" id="connector6pin" gorn="0.1.89" width="1.312" fill="#B68B2D"/>
  <rect  height="7.427" x="66.4299" y="-0.001" id="rect161" width="3.71299" fill="#454545"/>
  <polygon  points="64.5699,1.854,66.4299,-0.001,66.4299,7.425,64.5699,5.566" id="polygon163" fill="#454545"/>
  <polygon  points="70.1409,-0.001,71.9989,1.854,71.9989,5.566,70.1409,7.425" id="polygon165" fill="#454545"/>
  <rect  height="1.668" x="67.6289" y="2.875" id="connector7pin" gorn="0.1.93" width="1.312" fill="#B68B2D"/>
  <rect  height="7.427" x="73.6279" y="-0.001" id="rect168" width="3.71299" fill="#454545"/>
  <polygon  points="71.7709,1.854,73.6279,-0.001,73.6279,7.425,71.7709,5.566" id="polygon170" fill="#454545"/>
  <polygon  points="77.3399,-0.001,79.1969,1.854,79.1969,5.566,77.3399,7.425" id="polygon172" fill="#454545"/>
  <rect  height="1.668" x="74.8279" y="2.875" id="connector8pin" gorn="0.1.97" width="1.312" fill="#B68B2D"/>
  <rect  height="7.427" x="80.8279" y="-0.001" id="rect175" width="3.71299" fill="#454545"/>
  <polygon  points="78.9709,1.854,80.8279,-0.001,80.8279,7.425,78.9709,5.566" id="polygon177" fill="#454545"/>
  <polygon  points="84.5399,-0.001,86.3979,1.854,86.3979,5.566,84.5399,7.425" id="polygon179" fill="#454545"/>
  <rect  height="1.668" x="82.0269" y="2.875" id="connector9pin" gorn="0.1.101" width="1.312" fill="#B68B2D"/>
  <rect  height="7.427" x="88.0269" y="-0.001" id="rect182" width="3.71399" fill="#454545"/>
  <polygon  points="86.1709,1.854,88.0269,-0.001,88.0269,7.425,86.1709,5.566" id="polygon184" fill="#454545"/>
  <polygon  points="91.7398,-0.001,93.5998,1.854,93.5998,5.566,91.7398,7.425" id="polygon186" fill="#454545"/>
  <rect  height="1.668" x="89.2288" y="2.875" id="connector10pin" gorn="0.1.105" width="1.312" fill="#B68B2D"/>
  <rect  height="7.427" x="95.2288" y="-0.001" id="rect189" width="3.71299" fill="#454545"/>
  <polygon  points="93.3698,1.854,95.2288,-0.001,95.2288,7.425,93.3698,5.566" id="polygon191" fill="#454545"/>
  <polygon  points="98.9388,-0.001,100.8,1.854,100.8,5.566,98.9388,7.425" id="polygon193" fill="#454545"/>
  <rect  height="1.668" x="96.4298" y="2.875" id="connector11pin" gorn="0.1.109" width="1.312" fill="#B68B2D"/>
  <rect  height="7.427" x="102.43" y="-0.001" id="rect196" width="3.71299" fill="#454545"/>
  <polygon  points="100.57,1.854,102.43,-0.001,102.43,7.425,100.57,5.566" id="polygon198" fill="#454545"/>
  <polygon  points="106.141,-0.001,107.999,1.854,107.999,5.566,106.141,7.425" id="polygon200" fill="#454545"/>
  <rect  height="1.668" x="103.628" y="2.875" id="connector12pin" gorn="0.1.113" width="1.312" fill="#B68B2D"/>
  <rect  height="7.427" x="109.628" y="-0.001" id="rect203" width="3.71299" fill="#454545"/>
  <polygon  points="107.771,1.854,109.628,-0.001,109.628,7.425,107.771,5.566" id="polygon205" fill="#454545"/>
  <polygon  points="113.341,-0.001,115.199,1.854,115.199,5.566,113.341,7.425" id="polygon207" fill="#454545"/>
  <rect  height="1.668" x="110.829" y="2.875" id="connector13pin" gorn="0.1.117" width="1.312" fill="#B68B2D"/>
  <rect  height="7.427" x="116.829" y="-0.001" id="rect210" width="3.71299" fill="#454545"/>
  <polygon  points="114.971,1.854,116.829,-0.001,116.829,7.425,114.971,5.566" id="polygon212" fill="#454545"/>
  <polygon  points="120.54,-0.001,122.398,1.854,122.398,5.566,120.54,7.425" id="polygon214" fill="#454545"/>
  <rect  height="1.668" x="118.027" y="2.875" id="connector14pin" gorn="0.1.121" width="1.312" fill="#B68B2D"/>
  <g transform="matrix(1, 0, 0, 1, 14.7988, 10.7676)">
   <g  id="g241">
    <g  id="g239">
     <g  id="g237">
      <g  id="g235">
       <g  id="g233">
        <g  id="g231">
         <g  id="g229">
          <g  id="g227">
           <g  id="g225">
            <g  id="g223">
             <g  id="g221">
              <g  id="g219">
               <text  id="text217" font-size="2.5" font-family="OCRA" fill="#FFFFFF">D0</text>
              </g>
             </g>
            </g>
           </g>
          </g>
         </g>
        </g>
       </g>
      </g>
     </g>
    </g>
   </g>
  </g>
  <g transform="matrix(1, 0, 0, 1, 22.0894, 10.7656)">
   <g  id="g267">
    <g  id="g265">
     <g  id="g263">
      <g  id="g261">
       <g  id="g259">
        <g  id="g257">
         <g  id="g255">
          <g  id="g253">
           <g  id="g251">
            <g  id="g249">
             <g  id="g247">
              <g  id="g245">
               <text  id="text243" font-size="2.5" font-family="OCRA" fill="#FFFFFF">D1</text>
              </g>
             </g>
            </g>
           </g>
          </g>
         </g>
        </g>
       </g>
      </g>
     </g>
    </g>
   </g>
  </g>
  <g transform="matrix(1, 0, 0, 1, 29.3803, 10.7656)">
   <g  id="g293">
    <g  id="g291">
     <g  id="g289">
      <g  id="g287">
       <g  id="g285">
        <g  id="g283">
         <g  id="g281">
          <g  id="g279">
           <g  id="g277">
            <g  id="g275">
             <g  id="g273">
              <g  id="g271">
               <text  id="text269" font-size="2.5" font-family="OCRA" fill="#FFFFFF">D2</text>
              </g>
             </g>
            </g>
           </g>
          </g>
         </g>
        </g>
       </g>
      </g>
     </g>
    </g>
   </g>
  </g>
  <g transform="matrix(1, 0, 0, 1, 36.6708, 10.7656)">
   <g  id="g319">
    <g  id="g317">
     <g  id="g315">
      <g  id="g313">
       <g  id="g311">
        <g  id="g309">
         <g  id="g307">
          <g  id="g305">
           <g  id="g303">
            <g  id="g301">
             <g  id="g299">
              <g  id="g297">
               <text  id="text295" font-size="2.5" font-family="OCRA" fill="#FFFFFF">D3</text>
              </g>
             </g>
            </g>
           </g>
          </g>
         </g>
        </g>
       </g>
      </g>
     </g>
    </g>
   </g>
  </g>
  <g transform="matrix(1, 0, 0, 1, 43.9613, 10.7656)">
   <g  id="g345">
    <g  id="g343">
     <g  id="g341">
      <g  id="g339">
       <g  id="g337">
        <g  id="g335">
         <g  id="g333">
          <g  id="g331">
           <g  id="g329">
            <g  id="g327">
             <g  id="g325">
              <g  id="g323">
               <text  id="text321" font-size="2.5" font-family="OCRA" fill="#FFFFFF">D4</text>
              </g>
             </g>
            </g>
           </g>
          </g>
         </g>
        </g>
       </g>
      </g>
     </g>
    </g>
   </g>
  </g>
  <g transform="matrix(1, 0, 0, 1, 50.3485, 10.7656)">
   <g  id="g371">
    <g  id="g369">
     <g  id="g367">
      <g  id="g365">
       <g  id="g363">
        <g  id="g361">
         <g  id="g359">
          <g  id="g357">
           <g  id="g355">
            <g  id="g353">
             <g  id="g351">
              <g  id="g349">
               <text  id="text347" font-size="2.5" font-family="OCRA" fill="#FFFFFF">3V3</text>
              </g>
             </g>
            </g>
           </g>
          </g>
         </g>
        </g>
       </g>
      </g>
     </g>
    </g>
   </g>
  </g>
  <g transform="matrix(1, 0, 0, 1, 57.6391, 10.7656)">
   <g  id="g397">
    <g  id="g395">
     <g  id="g393">
      <g  id="g391">
       <g  id="g389">
        <g  id="g387">
         <g  id="g385">
          <g  id="g383">
           <g  id="g381">
            <g  id="g379">
             <g  id="g377">
              <g  id="g375">
               <text  id="text373" font-size="2.5" font-family="OCRA" fill="#FFFFFF">GND</text>
              </g>
             </g>
            </g>
           </g>
          </g>
         </g>
        </g>
       </g>
      </g>
     </g>
    </g>
   </g>
  </g>
  <g transform="matrix(1, 0, 0, 1, 65.8334, 10.7676)">
   <g  id="g423">
    <g  id="g421">
     <g  id="g419">
      <g  id="g417">
       <g  id="g415">
        <g  id="g413">
         <g  id="g411">
          <g  id="g409">
           <g  id="g407">
            <g  id="g405">
             <g  id="g403">
              <g  id="g401">
               <text  id="text399" font-size="2.5" font-family="OCRA" fill="#FFFFFF">D5</text>
              </g>
             </g>
            </g>
           </g>
          </g>
         </g>
        </g>
       </g>
      </g>
     </g>
    </g>
   </g>
  </g>
  <g transform="matrix(1, 0, 0, 1, 73.1239, 10.7656)">
   <g  id="g449">
    <g  id="g447">
     <g  id="g445">
      <g  id="g443">
       <g  id="g441">
        <g  id="g439">
         <g  id="g437">
          <g  id="g435">
           <g  id="g433">
            <g  id="g431">
             <g  id="g429">
              <g  id="g427">
               <text  id="text425" font-size="2.5" font-family="OCRA" fill="#FFFFFF">D6</text>
              </g>
             </g>
            </g>
           </g>
          </g>
         </g>
        </g>
       </g>
      </g>
     </g>
    </g>
   </g>
  </g>
  <g transform="matrix(1, 0, 0, 1, 80.4149, 10.7676)">
   <g  id="g475">
    <g  id="g473">
     <g  id="g471">
      <g  id="g469">
       <g  id="g467">
        <g  id="g465">
         <g  id="g463">
          <g  id="g461">
           <g  id="g459">
            <g  id="g457">
             <g  id="g455">
              <g  id="g453">
               <text  id="text451" font-size="2.5" font-family="OCRA" fill="#FFFFFF">D7</text>
              </g>
             </g>
            </g>
           </g>
          </g>
         </g>
        </g>
       </g>
      </g>
     </g>
    </g>
   </g>
  </g>
  <g transform="matrix(1, 0, 0, 1, 87.706, 10.7656)">
   <g  id="g501">
    <g  id="g499">
     <g  id="g497">
      <g  id="g495">
       <g  id="g493">
        <g  id="g491">
         <g  id="g489">
          <g  id="g487">
           <g  id="g485">
            <g  id="g483">
             <g  id="g481">
              <g  id="g479">
               <text  id="text477" font-size="2.5" font-family="OCRA" fill="#FFFFFF">D8</text>
              </g>
             </g>
            </g>
           </g>
          </g>
         </g>
        </g>
       </g>
      </g>
     </g>
    </g>
   </g>
  </g>
  <g transform="matrix(1, 0, 0, 1, 94.9959, 10.7676)">
   <g  id="g527">
    <g  id="g525">
     <g  id="g523">
      <g  id="g521">
       <g  id="g519">
        <g  id="g517">
         <g  id="g515">
          <g  id="g513">
           <g  id="g511">
            <g  id="g509">
             <g  id="g507">
              <g  id="g505">
               <text  id="text503" font-size="2.5" font-family="OCRA" fill="#FFFFFF">RX</text>
              </g>
             </g>
            </g>
           </g>
          </g>
         </g>
        </g>
       </g>
      </g>
     </g>
    </g>
   </g>
  </g>
  <g transform="matrix(1, 0, 0, 1, 102.287, 10.7656)">
   <g  id="g553">
    <g  id="g551">
     <g  id="g549">
      <g  id="g547">
       <g  id="g545">
        <g  id="g543">
         <g  id="g541">
          <g  id="g539">
           <g  id="g537">
            <g  id="g535">
             <g  id="g533">
              <g  id="g531">
               <text  id="text529" font-size="2.5" font-family="OCRA" fill="#FFFFFF">TX</text>
              </g>
             </g>
            </g>
           </g>
          </g>
         </g>
        </g>
       </g>
      </g>
     </g>
    </g>
   </g>
  </g>
  <g transform="matrix(1, 0, 0, 1, 108.674, 10.7676)">
   <g  id="g579">
    <g  id="g577">
     <g  id="g575">
      <g  id="g573">
       <g  id="g571">
        <g  id="g569">
         <g  id="g567">
          <g  id="g565">
           <g  id="g563">
            <g  id="g561">
             <g  id="g559">
              <g  id="g557">
               <text  id="text555" font-size="2.5" font-family="OCRA" fill="#FFFFFF">GND</text>
              </g>
             </g>
            </g>
           </g>
          </g>
         </g>
        </g>
       </g>
      </g>
     </g>
    </g>
   </g>
  </g>
  <g transform="matrix(1, 0, 0, 1, 115.965, 10.7656)">
   <g  id="g605">
    <g  id="g603">
     <g  id="g601">
      <g  id="g599">
       <g  id="g597">
        <g  id="g595">
         <g  id="g593">
          <g  id="g591">
           <g  id="g589">
            <g  id="g587">
             <g  id="g585">
              <g  id="g583">
               <text  id="text581" font-size="2.5" font-family="OCRA" fill="#FFFFFF">3V3</text>
              </g>
             </g>
            </g>
           </g>
          </g>
         </g>
        </g>
       </g>
      </g>
     </g>
    </g>
   </g>
  </g>
  <g transform="matrix(-1, 0, 0, -1, 121.629, 60.9414)">
   <g  id="g631">
    <g  id="g629">
     <g  id="g627">
      <g  id="g625">
       <g  id="g623">
        <g  id="g621">
         <g  id="g619">
          <g  id="g617">
           <g  id="g615">
            <g  id="g613">
             <g  id="g611">
              <g  id="g609">
               <text  id="text607" font-size="2.5" font-family="OCRA" fill="#FFFFFF">Vin</text>
              </g>
             </g>
            </g>
           </g>
          </g>
         </g>
        </g>
       </g>
      </g>
     </g>
    </g>
   </g>
  </g>
  <g transform="matrix(-1, 0, 0, -1, 114.48, 60.9414)">
   <g  id="g657">
    <g  id="g655">
     <g  id="g653">
      <g  id="g651">
       <g  id="g649">
        <g  id="g647">
         <g  id="g645">
          <g  id="g643">
           <g  id="g641">
            <g  id="g639">
             <g  id="g637">
              <g  id="g635">
               <text  id="text633" font-size="2.5" font-family="OCRA" fill="#FFFFFF">GND</text>
              </g>
             </g>
            </g>
           </g>
          </g>
         </g>
        </g>
       </g>
      </g>
     </g>
    </g>
   </g>
  </g>
  <g transform="matrix(-1, 0, 0, -1, 107.332, 60.9414)">
   <g  id="g683">
    <g  id="g681">
     <g  id="g679">
      <g  id="g677">
       <g  id="g675">
        <g  id="g673">
         <g  id="g671">
          <g  id="g669">
           <g  id="g667">
            <g  id="g665">
             <g  id="g663">
              <g  id="g661">
               <text  id="text659" font-size="2.5" font-family="OCRA" fill="#FFFFFF">RST</text>
              </g>
             </g>
            </g>
           </g>
          </g>
         </g>
        </g>
       </g>
      </g>
     </g>
    </g>
   </g>
  </g>
  <g transform="matrix(-1, 0, 0, -1, 99.0994, 60.9414)">
   <g  id="g709">
    <g  id="g707">
     <g  id="g705">
      <g  id="g703">
       <g  id="g701">
        <g  id="g699">
         <g  id="g697">
          <g  id="g695">
           <g  id="g693">
            <g  id="g691">
             <g  id="g689">
              <g  id="g687">
               <text  id="text685" font-size="2.5" font-family="OCRA" fill="#FFFFFF">EN</text>
              </g>
             </g>
            </g>
           </g>
          </g>
         </g>
        </g>
       </g>
      </g>
     </g>
    </g>
   </g>
  </g>
  <g transform="matrix(-1, 0, 0, -1, 93.035, 60.9414)">
   <g  id="g735">
    <g  id="g733">
     <g  id="g731">
      <g  id="g729">
       <g  id="g727">
        <g  id="g725">
         <g  id="g723">
          <g  id="g721">
           <g  id="g719">
            <g  id="g717">
             <g  id="g715">
              <g  id="g713">
               <text  id="text711" font-size="2.5" font-family="OCRA" fill="#FFFFFF">3V3</text>
              </g>
             </g>
            </g>
           </g>
          </g>
         </g>
        </g>
       </g>
      </g>
     </g>
    </g>
   </g>
  </g>
  <g transform="matrix(-1, 0, 0, -1, 85.8866, 60.9414)">
   <g  id="g761">
    <g  id="g759">
     <g  id="g757">
      <g  id="g755">
       <g  id="g753">
        <g  id="g751">
         <g  id="g749">
          <g  id="g747">
           <g  id="g745">
            <g  id="g743">
             <g  id="g741">
              <g  id="g739">
               <text  id="text737" font-size="2.5" font-family="OCRA" fill="#FFFFFF">GND</text>
              </g>
             </g>
            </g>
           </g>
          </g>
         </g>
        </g>
       </g>
      </g>
     </g>
    </g>
   </g>
  </g>
  <g transform="matrix(-1, 0, 0, -1, 78.7382, 60.9414)">
   <g  id="g787">
    <g  id="g785">
     <g  id="g783">
      <g  id="g781">
       <g  id="g779">
        <g  id="g777">
         <g  id="g775">
          <g  id="g773">
           <g  id="g771">
            <g  id="g769">
             <g  id="g767">
              <g  id="g765">
               <text  id="text763" font-size="2.5" font-family="OCRA" fill="#FFFFFF">CLK</text>
              </g>
             </g>
            </g>
           </g>
          </g>
         </g>
        </g>
       </g>
      </g>
     </g>
    </g>
   </g>
  </g>
  <g transform="matrix(-1, 0, 0, -1, 71.5897, 60.9414)">
   <g  id="g813">
    <g  id="g811">
     <g  id="g809">
      <g  id="g807">
       <g  id="g805">
        <g  id="g803">
         <g  id="g801">
          <g  id="g799">
           <g  id="g797">
            <g  id="g795">
             <g  id="g793">
              <g  id="g791">
               <text  id="text789" font-size="2.5" font-family="OCRA" fill="#FFFFFF">SD0</text>
              </g>
             </g>
            </g>
           </g>
          </g>
         </g>
        </g>
       </g>
      </g>
     </g>
    </g>
   </g>
  </g>
  <g transform="matrix(-1, 0, 0, -1, 64.4394, 60.9414)">
   <g  id="g839">
    <g  id="g837">
     <g  id="g835">
      <g  id="g833">
       <g  id="g831">
        <g  id="g829">
         <g  id="g827">
          <g  id="g825">
           <g  id="g823">
            <g  id="g821">
             <g  id="g819">
              <g  id="g817">
               <text  id="text815" font-size="2.5" font-family="OCRA" fill="#FFFFFF">CMD</text>
              </g>
             </g>
            </g>
           </g>
          </g>
         </g>
        </g>
       </g>
      </g>
     </g>
    </g>
   </g>
  </g>
  <g transform="matrix(-1, 0, 0, -1, 57.2909, 60.9414)">
   <g  id="g865">
    <g  id="g863">
     <g  id="g861">
      <g  id="g859">
       <g  id="g857">
        <g  id="g855">
         <g  id="g853">
          <g  id="g851">
           <g  id="g849">
            <g  id="g847">
             <g  id="g845">
              <g  id="g843">
               <text  id="text841" font-size="2.5" font-family="OCRA" fill="#FFFFFF">SD1</text>
              </g>
             </g>
            </g>
           </g>
          </g>
         </g>
        </g>
       </g>
      </g>
     </g>
    </g>
   </g>
  </g>
  <g transform="matrix(-1, 0, 0, -1, 50.1425, 60.9414)">
   <g  id="g891">
    <g  id="g889">
     <g  id="g887">
      <g  id="g885">
       <g  id="g883">
        <g  id="g881">
         <g  id="g879">
          <g  id="g877">
           <g  id="g875">
            <g  id="g873">
             <g  id="g871">
              <g  id="g869">
               <text  id="text867" font-size="2.5" font-family="OCRA" fill="#FFFFFF">SD2</text>
              </g>
             </g>
            </g>
           </g>
          </g>
         </g>
        </g>
       </g>
      </g>
     </g>
    </g>
   </g>
  </g>
  <g transform="matrix(-1, 0, 0, -1, 42.994, 60.9414)">
   <g  id="g917">
    <g  id="g915">
     <g  id="g913">
      <g  id="g911">
       <g  id="g909">
        <g  id="g907">
         <g  id="g905">
          <g  id="g903">
           <g  id="g901">
            <g  id="g899">
             <g  id="g897">
              <g  id="g895">
               <text  id="text893" font-size="2.5" font-family="OCRA" fill="#FFFFFF">SD3</text>
              </g>
             </g>
            </g>
           </g>
          </g>
         </g>
        </g>
       </g>
      </g>
     </g>
    </g>
   </g>
  </g>
  <g transform="matrix(-1, 0, 0, -1, 35.8456, 60.9414)">
   <g  id="g943">
    <g  id="g941">
     <g  id="g939">
      <g  id="g937">
       <g  id="g935">
        <g  id="g933">
         <g  id="g931">
          <g  id="g929">
           <g  id="g927">
            <g  id="g925">
             <g  id="g923">
              <g  id="g921">
               <text  id="text919" font-size="2.5" font-family="OCRA" fill="#FFFFFF">RSV</text>
              </g>
             </g>
            </g>
           </g>
          </g>
         </g>
        </g>
       </g>
      </g>
     </g>
    </g>
   </g>
  </g>
  <g transform="matrix(-1, 0, 0, -1, 28.6973, 60.9414)">
   <g  id="g969">
    <g  id="g967">
     <g  id="g965">
      <g  id="g963">
       <g  id="g961">
        <g  id="g959">
         <g  id="g957">
          <g  id="g955">
           <g  id="g953">
            <g  id="g951">
             <g  id="g949">
              <g  id="g947">
               <text  id="text945" font-size="2.5" font-family="OCRA" fill="#FFFFFF">RSV</text>
              </g>
             </g>
            </g>
           </g>
          </g>
         </g>
        </g>
       </g>
      </g>
     </g>
    </g>
   </g>
  </g>
  <g transform="matrix(-1, 0, 0, -1, 20.4648, 60.9414)">
   <g  id="g995">
    <g  id="g993">
     <g  id="g991">
      <g  id="g989">
       <g  id="g987">
        <g  id="g985">
         <g  id="g983">
          <g  id="g981">
           <g  id="g979">
            <g  id="g977">
             <g  id="g975">
              <g  id="g973">
               <text  id="text971" font-size="2.5" font-family="OCRA" fill="#FFFFFF">A0</text>
              </g>
             </g>
            </g>
           </g>
          </g>
         </g>
        </g>
       </g>
      </g>
     </g>
    </g>
   </g>
  </g>
  <rect  height="21.833" x="124.133" y="25.099" id="rect997" width="17.333" fill="#BEC0C2"/>
  <rect  height="8" x="123.962" y="13.599" id="rect999" width="7.83299" fill="#BEC0C2"/>
  <circle  id="circle1001" cy="17.683" cx="127.883" r="2.75" fill="#231F20"/>
  <rect  height="8" x="123.962" y="50.398" id="rect1003" width="7.83299" fill="#BEC0C2"/>
  <circle  id="circle1005" cy="54.482" cx="127.883" r="2.75" fill="#231F20"/>
  <g transform="matrix(4.48966e-11, -1, 1, 4.48966e-11, 122.799, 21.7637)">
   <g  id="g1031">
    <g  id="g1029">
     <g  id="g1027">
      <g  id="g1025">
       <g  id="g1023">
        <g  id="g1021">
         <g  id="g1019">
          <g  id="g1017">
           <g  id="g1015">
            <g  id="g1013">
             <g  id="g1011">
              <g  id="g1009">
               <text  id="text1007" font-size="2.5" font-family="OCRA" fill="#FFFFFF">FLASH</text>
              </g>
             </g>
            </g>
           </g>
          </g>
         </g>
        </g>
       </g>
      </g>
     </g>
    </g>
   </g>
  </g>
  <g transform="matrix(4.48966e-11, -1, 1, 4.48966e-11, 122.797, 56.5977)">
   <g  id="g1057">
    <g  id="g1055">
     <g  id="g1053">
      <g  id="g1051">
       <g  id="g1049">
        <g  id="g1047">
         <g  id="g1045">
          <g  id="g1043">
           <g  id="g1041">
            <g  id="g1039">
             <g  id="g1037">
              <g  id="g1035">
               <text  id="text1033" font-size="2.5" font-family="OCRA" fill="#FFFFFF">RST</text>
              </g>
             </g>
            </g>
           </g>
          </g>
         </g>
        </g>
       </g>
      </g>
     </g>
    </g>
   </g>
  </g>
  <rect  height="39.033" x="21.133" y="16.432" id="rect1059" width="43.4999" fill="#5F5758"/>
  <rect  height="11.834" x="2.362" y="18.767" id="rect1061" width="1.312" fill="#B68B2D"/>
  <rect  height="1.168" x="2.468" y="29.434" id="rect1063" width="11.099" fill="#B68B2D"/>
  <rect  height="1.168" x="2.468" y="33.238" id="rect1065" width="11.099" fill="#B68B2D"/>
  <rect  height="1.168" x="2.468" y="37.043" id="rect1067" width="11.099" fill="#B68B2D"/>
  <rect  height="1.168" x="2.468" y="40.848" id="rect1069" width="11.099" fill="#B68B2D"/>
  <rect  height="1.168" x="2.468" y="44.654" id="rect1071" width="11.099" fill="#B68B2D"/>
  <rect  height="1.168" x="2.468" y="48.457" id="rect1073" width="11.099" fill="#B68B2D"/>
  <rect  height="4.973" x="12.255" y="29.434" id="rect1075" width="1.312" fill="#B68B2D"/>
  <rect  height="4.168" x="2.468" y="34.043" id="rect1077" width="1.312" fill="#B68B2D"/>
  <rect  height="4.973" x="12.255" y="37.043" id="rect1079" width="1.312" fill="#B68B2D"/>
  <rect  height="4.976" x="2.468" y="40.848" id="rect1081" width="1.312" fill="#B68B2D"/>
  <rect  height="4.973" x="12.255" y="44.654" id="rect1083" width="1.312" fill="#B68B2D"/>
  <rect  height="5.992" x="2.599" y="48.41" id="rect1085" width="1.312" fill="#B68B2D"/>
  <rect  height="1.168" x="3.01799" y="53.234" id="rect1087" width="18.582" fill="#B68B2D"/>
  <rect  height="24.312" x="16.495" y="30.018" id="rect1089" width="1.312" fill="#B68B2D"/>
  <rect  height="8.264" x="107.766" y="25.857" id="rect1091" width="9.20898" fill="#524B4C"/>
  <rect  height="6.217" x="70.4529" y="23.773" id="rect1093" width="15.945" fill="#4D4648"/>
 </g>
 <g transform="matrix(1, 0, 0, 1, 71.0702, 41.374)">
  <g  id="g1125">
   <g  id="g1123">
    <g  id="g1121">
     <g  id="g1119">
      <g  id="g1117">
       <g  id="g1115">
        <g  id="g1113">
         <g  id="g1111">
          <g  id="g1109">
           <g  id="g1107">
            <g  id="g1105">
             <g  id="g1103">
              <g  id="g1101">
               <text  x="0" y="0" id="text1097" font-size="6.99999" font-family="OCRA" fill="#FFFFFF">NodeMCU </text>
               <text  x="0" y="8.4" id="text1099" font-size="6.99999" font-family="OCRA" fill="#FFFFFF">V1.0</text>
              </g>
             </g>
            </g>
           </g>
          </g>
         </g>
        </g>
       </g>
      </g>
     </g>
    </g>
   </g>
  </g>
 </g>
 <g transform="matrix(1, 0, 0, 1, 70.0829, 18.7642)">
  <g  id="g1151">
   <g  id="g1149">
    <g  id="g1147">
     <g  id="g1145">
      <g  id="g1143">
       <g  id="g1141">
        <g  id="g1139">
         <g  id="g1137">
          <g  id="g1135">
           <g  id="g1133">
            <g  id="g1131">
             <g  id="g1129">
              <text  id="text1127" font-size="3.99999" font-family="OCRA" fill="#FFFFFF">blog.squix.ch</text>
             </g>
            </g>
           </g>
          </g>
         </g>
        </g>
       </g>
      </g>
     </g>
    </g>
   </g>
  </g>
 </g>
</g>
</g></g><g partID='854381630'><line stroke-linecap='round' stroke='#000000' x1='111.485' y1='208.8' x2='104.286' y2='158.4' stroke-width='3.2' /><line stroke-linecap='round' stroke='#404040' x1='111.485' y1='208.8' x2='104.286' y2='158.4' stroke-width='1.6' /></g><g partID='854381740'><line stroke-linecap='round' stroke='#d6d63a' x1='89.8848' y1='208.8' x2='97.0859' y2='158.4' stroke-width='3.2' /><line stroke-linecap='round' stroke='#fff800' x1='89.8848' y1='208.8' x2='97.0859' y2='158.4' stroke-width='1.6' /></g><g partID='854381810'><line stroke-linecap='round' stroke='#8c0000' x1='118.683' y1='208.8' x2='89.8859' y2='158.4' stroke-width='3.2' /><line stroke-linecap='round' stroke='#cc1414' x1='118.683' y1='208.8' x2='89.8859' y2='158.4' stroke-width='1.6' /></g></svg>